<?xml version="1.0" encoding="UTF-8" ?>
<!DOCTYPE svg PUBLIC "-//W3C//DTD SVG 1.1//EN" "http://www.w3.org/Graphics/SVG/1.1/DTD/svg11.dtd">
<svg width="1225pt" height="1229pt" viewBox="0 0 1225 1229" version="1.1" xmlns="http://www.w3.org/2000/svg">
<path fill="#f8c301" stroke="#f8c301" stroke-width="0.09375" opacity="1.00" d=" M 0.0 0.0 L 1225.0 0.0 L 1225.0 1229.0 L 0.0 1229.0 L 0.0 0.0 Z" />
<path fill="#0065a9" stroke="#0065a9" stroke-width="0.09375" opacity="1.00" d=" M 610.3 240.3 C 612.4 240.3 614.6 240.3 616.7 240.3 C 617.1 270.5 616.8 300.8 616.9 331.0 C 617.1 341.2 616.4 351.5 617.2 361.7 C 673.2 361.8 729.1 361.7 785.0 361.8 C 792.6 362.0 800.2 361.2 807.7 362.2 C 807.7 368.2 807.6 374.1 807.8 380.0 C 807.9 383.2 810.5 385.4 812.3 387.7 C 821.7 400.0 830.8 412.5 839.8 425.2 C 844.0 429.2 846.0 434.8 850.2 438.8 C 852.1 441.0 853.7 443.4 855.1 445.9 C 857.1 449.2 860.4 451.4 862.2 454.7 C 875.4 473.0 888.9 491.3 902.5 509.4 C 904.9 513.3 907.5 517.1 910.7 520.3 C 915.5 528.6 922.6 535.3 927.4 543.7 C 934.0 550.8 938.9 559.4 945.2 566.8 C 946.3 569.5 948.2 571.7 950.2 573.8 C 957.2 583.1 963.8 592.8 971.0 602.0 C 975.2 607.8 979.7 613.3 983.6 619.3 C 983.6 619.7 983.6 620.3 983.6 620.7 C 980.5 624.2 977.0 627.4 973.7 630.7 C 970.8 633.5 966.9 635.2 964.2 638.2 C 962.3 640.3 959.1 640.1 957.1 642.1 C 952.6 645.8 947.3 647.9 942.2 650.3 C 933.4 655.1 923.9 658.8 914.2 661.3 C 903.3 666.2 891.5 668.6 879.8 670.8 C 860.4 674.8 840.7 676.4 821.1 677.7 C 806.2 677.6 791.2 678.4 776.4 676.6 C 754.5 675.3 732.8 671.7 711.4 666.5 C 696.5 662.6 681.7 658.0 667.8 651.2 C 662.4 647.4 656.0 645.3 650.7 641.3 C 648.7 639.8 645.8 639.8 643.9 638.1 C 637.8 631.7 630.0 627.1 624.7 620.0 C 625.5 616.5 628.5 614.2 630.3 611.3 C 632.8 608.7 634.7 605.7 636.8 602.8 C 640.7 598.6 643.2 593.3 647.1 589.1 C 648.8 586.2 650.8 583.6 653.1 581.1 C 655.9 576.4 659.5 572.2 662.7 567.7 C 664.9 564.9 666.6 561.7 669.2 559.2 C 673.0 555.4 674.8 550.3 678.6 546.6 C 680.7 543.7 682.4 540.6 685.1 538.1 C 688.2 532.7 692.6 528.2 696.0 523.0 C 698.1 519.9 700.3 516.7 703.0 514.0 C 704.9 512.1 705.7 509.4 707.4 507.3 C 712.7 500.9 717.4 494.0 722.3 487.3 C 725.7 483.9 727.6 479.4 731.1 476.1 C 732.8 471.7 737.1 469.2 738.9 464.9 C 743.8 459.3 747.2 452.6 752.2 447.2 C 759.7 436.7 767.5 426.5 775.2 416.1 C 776.2 414.8 776.4 412.9 777.9 411.9 C 781.0 409.6 783.0 406.2 784.9 402.9 C 786.5 400.5 789.1 398.9 790.1 396.2 C 793.2 391.3 797.0 387.0 800.3 382.4 C 801.2 378.1 800.6 373.6 800.7 369.3 C 676.8 369.2 552.9 369.3 429.0 369.3 C 427.7 369.4 425.9 368.8 425.3 370.4 C 425.4 374.1 425.2 377.8 425.5 381.6 C 429.2 386.2 432.1 391.5 436.1 395.9 C 439.9 401.1 444.0 406.1 447.4 411.7 C 451.8 415.7 453.9 421.5 458.2 425.8 C 463.2 432.4 468.1 439.2 473.2 445.8 C 477.3 452.8 483.2 458.6 487.6 465.4 C 488.7 467.3 490.3 468.7 491.5 470.5 C 494.1 475.7 498.5 479.6 501.7 484.3 C 506.9 491.8 512.5 498.8 517.8 506.2 C 522.8 511.7 526.2 518.3 531.1 523.9 C 536.4 531.3 541.8 538.6 547.0 546.1 C 550.0 549.1 551.7 553.1 554.8 556.2 C 558.6 560.5 561.1 565.7 565.1 569.9 C 566.4 573.0 569.0 575.3 571.1 577.9 C 576.5 585.7 582.5 593.2 588.1 601.0 C 589.0 602.3 590.6 603.0 591.4 604.5 C 592.7 608.2 595.7 610.9 597.8 614.2 C 599.0 616.4 602.4 617.6 601.6 620.6 C 596.6 625.9 591.6 631.3 585.5 635.5 C 582.7 637.3 580.5 640.0 577.3 641.2 C 573.8 642.6 571.3 645.4 567.9 646.8 C 564.8 648.2 562.2 650.8 558.8 651.6 C 556.5 652.1 554.5 653.2 552.5 654.5 C 529.8 664.6 505.3 669.9 480.8 673.7 C 451.6 677.9 421.9 679.0 392.4 676.5 C 360.1 674.3 328.0 667.9 297.8 656.3 C 294.9 655.9 292.4 654.6 290.0 653.0 C 277.9 649.4 267.7 641.7 257.5 634.5 C 253.1 632.7 251.0 628.4 247.6 625.4 C 246.0 623.6 243.8 622.2 242.7 620.0 C 242.4 618.2 244.8 617.8 245.2 616.2 C 246.2 613.5 248.8 611.8 250.2 609.3 C 251.1 607.8 252.1 606.5 253.5 605.4 C 253.8 601.5 257.6 599.6 259.3 596.3 C 261.1 592.9 264.2 590.5 266.2 587.2 C 270.6 581.8 273.9 575.7 278.6 570.6 C 285.8 560.8 292.8 550.9 300.3 541.4 C 307.2 531.1 315.5 521.7 322.3 511.3 C 327.2 506.0 330.3 499.4 335.2 494.2 C 336.9 492.5 337.8 490.1 339.3 488.3 C 342.2 485.1 344.9 481.7 346.9 477.9 C 350.1 474.4 352.4 470.2 355.6 466.6 C 359.2 460.9 364.0 456.2 367.4 450.4 C 372.3 444.5 376.8 438.4 381.2 432.1 C 383.1 427.5 387.6 424.6 390.3 420.3 C 395.3 412.2 401.8 405.1 407.2 397.2 C 410.8 391.9 415.0 387.0 418.6 381.6 C 418.8 375.7 418.5 369.9 418.7 364.0 C 418.3 362.1 420.5 361.5 422.0 361.7 C 484.6 361.8 547.1 361.8 609.7 361.7 C 610.1 332.8 609.8 303.9 609.9 275.0 C 610.1 263.4 609.5 251.8 610.3 240.3 Z" />
<path fill="#f8c301" stroke="#f8c301" stroke-width="0.09375" opacity="1.00" d=" M 425.3 394.3 C 426.3 394.1 427.0 394.5 427.5 395.4 C 433.8 404.7 441.0 413.4 447.3 422.7 C 450.5 425.7 452.2 429.7 455.1 432.8 C 466.3 448.6 478.4 463.7 489.5 479.5 C 490.3 481.3 491.4 482.8 493.1 483.9 C 497.3 491.1 503.4 497.1 507.7 504.3 C 530.5 534.8 553.2 565.5 575.9 596.0 C 580.0 602.2 584.7 608.0 588.9 614.1 C 590.3 615.9 592.1 617.5 592.8 619.8 C 538.9 620.1 484.9 619.9 431.0 620.0 C 429.1 620.0 427.2 619.9 425.3 619.7 C 425.4 544.6 425.4 469.4 425.3 394.3 Z" />
<path fill="#f8c301" stroke="#f8c301" stroke-width="0.09375" opacity="1.00" d=" M 797.4 397.4 C 798.3 396.1 799.4 394.9 800.8 394.2 C 800.8 469.4 800.8 544.5 800.7 619.7 C 788.5 620.6 776.2 619.8 764.0 620.1 C 720.7 619.9 677.5 620.2 634.2 619.7 C 633.9 618.4 634.3 617.2 635.3 616.3 C 642.4 607.7 648.3 598.1 655.5 589.5 C 656.8 586.0 660.2 584.0 661.8 580.7 C 662.8 578.5 664.7 577.0 666.2 575.2 C 672.4 565.3 680.3 556.5 686.9 546.8 C 696.4 534.7 705.2 521.9 714.5 509.5 C 717.7 504.4 722.2 500.3 725.1 495.1 C 733.8 483.4 742.9 472.0 751.0 459.9 C 753.8 458.0 754.9 454.6 757.1 452.1 C 759.6 448.6 762.6 445.4 764.6 441.5 C 771.6 432.8 778.2 423.7 784.5 414.5 C 789.1 409.0 793.3 403.2 797.4 397.4 Z" />
<path fill="#f8c301" stroke="#f8c301" stroke-width="0.09375" opacity="1.00" d=" M 808.2 394.2 C 816.6 403.2 822.7 414.6 831.1 423.9 C 833.7 429.3 838.6 433.3 841.4 438.6 C 844.3 442.1 846.5 446.1 849.7 449.3 C 852.0 452.6 853.9 456.3 857.0 458.9 C 861.0 466.1 867.2 471.7 871.0 479.1 C 877.5 485.7 882.1 493.9 887.8 501.2 C 891.8 505.0 893.8 510.4 897.7 514.3 C 900.0 516.5 900.9 519.7 903.2 521.8 C 905.5 523.7 906.2 526.7 908.2 528.8 C 916.9 540.8 926.0 552.4 934.5 564.6 C 936.2 567.1 938.9 568.9 940.1 571.8 C 941.1 574.1 943.5 575.5 944.3 577.8 C 944.8 579.8 947.1 580.2 947.9 582.1 C 949.6 585.2 952.1 587.9 954.1 591.0 C 955.8 593.8 958.8 595.7 960.1 598.8 C 961.8 602.3 965.2 604.5 967.1 607.9 C 969.2 611.6 972.0 614.9 974.5 618.4 C 974.6 618.7 974.7 619.4 974.7 619.7 C 961.5 620.4 948.2 619.8 935.0 620.0 C 899.3 620.0 863.7 620.0 828.0 620.0 C 821.4 619.9 814.8 620.2 808.2 619.7 C 807.3 618.3 807.8 616.6 807.6 615.0 C 807.7 544.3 807.8 473.7 807.8 403.0 C 807.7 400.1 807.8 397.1 808.2 394.2 Z" />
<path fill="#f8c301" stroke="#f8c301" stroke-width="0.09375" opacity="1.00" d=" M 410.9 402.9 C 413.5 400.6 414.7 396.5 418.0 395.2 C 418.2 396.4 418.4 397.7 418.4 399.0 C 418.3 471.0 418.3 543.0 418.4 615.0 C 418.2 616.6 418.8 618.4 417.8 619.7 C 416.2 620.1 414.6 620.1 413.0 620.1 C 359.1 620.0 305.1 620.0 251.2 619.8 C 254.2 613.5 259.4 608.8 262.9 602.9 C 267.0 598.6 269.5 592.9 273.8 588.8 C 275.2 587.4 275.9 585.6 276.9 583.9 C 281.5 579.0 285.1 573.3 288.9 567.9 C 296.2 559.4 301.9 549.7 309.1 541.1 C 310.0 539.9 310.4 538.4 311.4 537.4 C 315.3 533.5 317.6 528.4 321.3 524.3 C 324.3 521.2 326.1 517.2 329.1 514.1 C 334.2 506.5 340.6 499.9 344.9 491.9 C 346.5 489.8 348.8 488.3 349.9 485.8 C 350.8 483.3 353.1 481.8 354.6 479.6 C 357.1 475.5 359.9 471.7 363.2 468.1 C 364.1 466.2 365.1 464.3 366.8 462.8 C 369.2 460.5 370.1 456.9 373.0 455.1 C 376.7 449.8 380.1 444.2 384.6 439.6 C 389.9 430.6 397.1 422.8 403.4 414.5 C 404.8 410.0 408.8 407.1 410.9 402.9 Z" />
<path fill="#0065a9" stroke="#0065a9" stroke-width="0.09375" opacity="1.00" d=" M 253.2 734.3 C 254.7 733.6 256.4 733.8 258.0 733.8 C 280.3 733.8 302.7 733.8 325.0 733.7 C 326.6 733.8 328.2 733.7 329.6 734.4 C 332.3 745.6 334.8 756.9 338.1 768.0 C 341.7 778.6 344.0 789.7 347.4 800.4 C 348.1 803.8 348.1 807.3 349.5 810.5 C 356.4 839.1 365.5 867.0 372.3 895.6 C 373.9 898.6 373.9 902.0 374.7 905.2 C 374.9 905.4 375.5 905.6 375.7 905.7 C 376.8 901.5 377.0 897.0 379.0 893.1 C 382.6 880.7 384.6 867.8 388.4 855.4 C 390.1 850.8 390.1 845.8 392.4 841.5 C 393.3 836.2 395.8 831.4 396.1 826.0 C 396.3 822.8 397.9 820.0 399.0 817.1 C 401.3 808.0 402.9 798.7 405.7 789.7 C 408.4 776.8 413.1 764.5 415.7 751.6 C 417.6 746.3 418.9 740.8 420.2 735.3 C 420.7 733.7 422.6 733.7 424.0 733.8 C 446.6 733.7 469.3 733.8 492.0 733.8 C 493.6 733.9 495.3 733.5 496.7 734.3 C 497.6 735.7 497.1 737.4 497.3 739.0 C 497.2 818.0 497.3 897.0 497.2 976.0 C 497.2 979.6 497.5 983.2 496.8 986.8 C 481.3 987.3 465.7 987.1 450.2 986.8 C 449.3 976.6 450.0 966.3 449.8 956.0 C 449.8 900.7 449.7 845.5 449.9 790.2 L 449.2 790.5 C 445.4 803.2 442.5 816.3 439.3 829.2 C 433.2 852.9 427.5 876.7 421.3 900.4 C 413.9 929.1 406.7 957.8 399.6 986.7 C 388.8 987.3 377.9 986.9 367.0 987.0 C 361.4 986.9 355.8 987.4 350.3 986.7 C 342.0 952.5 333.1 918.4 324.7 884.2 C 318.2 857.1 310.4 830.2 304.0 803.0 C 303.6 798.7 301.9 794.6 300.8 790.4 L 300.1 790.3 C 300.3 852.2 300.2 914.1 300.2 976.0 C 300.1 979.6 300.5 983.2 299.8 986.8 C 290.2 987.3 280.6 986.9 271.0 987.0 C 265.1 986.9 259.1 987.3 253.2 986.7 C 252.6 984.5 252.7 982.2 252.7 980.0 C 252.7 899.7 252.7 819.3 252.7 739.0 C 252.8 737.4 252.4 735.7 253.2 734.3 Z" />
<path fill="#0065a9" stroke="#0065a9" stroke-width="0.09375" opacity="1.00" d=" M 548.3 734.2 C 549.7 733.5 551.4 733.8 553.0 733.7 C 581.7 733.8 610.3 733.7 639.0 733.8 C 653.1 733.9 667.3 734.0 681.2 736.8 C 697.3 740.1 712.9 747.6 724.4 759.5 C 728.2 763.5 732.5 767.0 735.6 771.5 C 736.5 774.0 738.5 775.8 740.1 777.9 C 750.2 793.8 756.0 812.3 758.1 831.0 C 759.7 842.6 760.2 854.3 759.9 866.0 C 759.9 885.9 757.0 906.0 749.4 924.5 C 744.9 932.9 741.6 942.1 735.6 949.6 C 730.9 955.8 726.1 962.2 719.7 966.7 C 712.5 970.6 705.7 975.3 697.9 978.1 C 695.3 978.8 693.1 980.5 690.6 981.4 C 671.0 987.5 650.3 986.8 630.0 987.0 C 602.7 986.9 575.5 987.4 548.2 986.8 C 547.3 976.6 548.1 966.3 547.8 956.0 C 547.8 883.7 547.8 811.3 547.8 739.0 C 547.9 737.4 547.7 735.7 548.3 734.2 Z" />
<path fill="#0065a9" stroke="#0065a9" stroke-width="0.09375" opacity="1.00" d=" M 803.6 736.0 C 803.2 734.1 805.6 733.6 807.0 733.8 C 834.3 733.8 861.7 733.7 889.0 733.8 C 904.1 734.0 919.2 733.8 934.2 735.6 C 942.2 736.2 950.3 738.0 957.6 741.5 C 967.6 746.0 976.1 753.6 982.8 762.2 C 987.7 768.0 990.0 775.3 992.8 782.3 C 998.3 799.0 998.2 817.1 995.1 834.2 C 992.7 842.4 990.2 850.9 984.5 857.5 C 975.3 872.9 959.0 883.3 941.8 887.7 C 936.5 888.2 931.4 889.8 926.0 889.9 C 915.4 890.5 904.7 891.9 894.0 891.7 C 881.3 891.7 868.7 891.5 856.0 891.7 C 854.1 892.2 854.8 894.6 854.6 896.0 C 854.7 926.2 854.5 956.5 854.7 986.7 C 842.2 987.4 829.6 986.9 817.0 987.0 C 812.7 986.9 808.4 987.3 804.2 986.7 C 803.3 985.3 803.8 983.6 803.6 982.0 C 803.7 900.0 803.7 818.0 803.6 736.0 Z" />
<path fill="#f8c301" stroke="#f8c301" stroke-width="0.09375" opacity="1.00" d=" M 855.4 776.3 C 869.6 776.3 883.8 776.4 898.0 776.3 C 901.1 776.2 904.0 777.6 907.1 777.6 C 911.2 777.7 915.4 778.0 919.6 778.6 C 923.8 780.6 928.7 781.4 932.1 784.9 C 936.6 790.1 941.9 795.3 943.5 802.3 C 944.7 808.1 944.6 814.1 943.8 819.9 C 942.6 824.0 940.9 828.0 938.8 831.7 C 934.0 837.8 927.7 842.6 920.4 845.3 C 900.6 849.4 880.1 848.1 860.0 848.4 C 858.2 848.2 856.1 848.7 854.6 847.4 C 854.0 824.1 854.5 800.7 854.3 777.4 C 854.6 777.1 855.1 776.6 855.4 776.3 Z" />
<path fill="#f8c301" stroke="#f8c301" stroke-width="0.09375" opacity="1.00" d=" M 599.3 777.2 C 599.7 777.1 600.6 776.8 601.0 776.7 C 620.9 776.8 640.9 775.8 660.7 778.4 C 666.2 779.8 671.9 780.7 677.1 783.1 C 683.8 785.9 687.4 792.6 693.1 796.9 C 698.0 805.0 702.2 813.7 704.0 823.1 C 706.9 837.8 707.4 853.0 707.1 868.0 C 706.4 882.8 705.7 898.0 700.0 911.9 C 697.1 919.3 694.3 927.6 687.5 932.5 C 685.2 933.8 683.1 935.3 681.1 937.1 C 670.2 942.1 658.0 944.1 646.0 944.1 C 632.7 944.4 619.3 944.2 606.0 944.3 C 603.7 944.2 601.4 944.4 599.2 943.8 C 598.5 935.9 599.1 927.9 598.9 920.0 C 598.9 874.0 598.9 828.0 598.9 782.0 C 598.9 780.4 598.8 778.8 599.3 777.2 Z" />
</svg>
